<svg width="62" height="16" viewBox="0 0 62 16" fill="none" xmlns="http://www.w3.org/2000/svg">
<g clip-path="url(#clip0_4_33)">
<path d="M62.0977 -0.0713196H-0.0976562V16.0713H62.0977V-0.0713196Z" fill="#005CAA"/>
<path fill-rule="evenodd" clip-rule="evenodd" d="M15.2093 5.65853C15.967 2.92581 13.7692 2.09326 11.4576 2.09326C9.1153 2.09326 6.63305 2.83171 5.94545 5.51721C5.68942 6.74225 6.02804 7.77874 7.05459 8.28142C9.26249 9.36514 11.6283 9.03526 11.3052 10.5744C11.1473 11.3283 10.1546 11.7054 9.43836 11.7054C8.32128 11.7054 7.66997 11.124 7.90769 10.056H4.80522C4.20539 13.1344 6.34108 13.9067 8.94737 13.9067C11.5378 13.9067 14.1026 12.7733 14.6043 10.3859C15.2456 7.32329 12.5567 7.13474 10.7804 6.64815C10.0047 6.42812 9.06865 6.16121 9.2421 5.32866C9.36096 4.76337 10.0797 4.29217 10.7932 4.29217C11.3208 4.29217 11.6981 4.41775 11.9127 4.65353C12.1428 4.88895 12.2126 5.21882 12.1068 5.65853H15.2093ZM24.1836 13.6685L24.6466 11.4696H19.2171L19.7212 9.06675H24.7164L25.1767 6.86783H20.1814L20.6724 4.52759H26.1023L26.565 2.32903H18.0326L15.6516 13.6685H24.1836ZM25.9368 13.6685H28.729L30.552 4.98305H30.5827L32.5609 13.6685H36.8578L39.2392 2.32903H36.447L34.6782 10.7472L34.642 10.7787L32.6618 2.32903H28.3178L25.9368 13.6685ZM41.1085 13.6685L42.3029 11.4539H46.8483L47.1275 13.6685H50.6335L48.5936 2.32903H44.8083L38.006 13.6685H41.1085ZM43.5544 9.25495L46.065 4.54334H46.1116L46.5484 9.25495H43.5544ZM54.9153 13.6685L57.2966 2.32903H54.1938L51.8128 13.6685H54.9153Z" fill="white"/>
<path fill-rule="evenodd" clip-rule="evenodd" d="M-0.0976562 7.83163H3.16145V8.1687H-0.0976562V7.83163Z" fill="white"/>
<path fill-rule="evenodd" clip-rule="evenodd" d="M-0.0976562 5.10208H3.16145V5.43915H-0.0976562V5.10208Z" fill="white"/>
<path fill-rule="evenodd" clip-rule="evenodd" d="M-0.0976562 2.37288H3.16145V2.70994H-0.0976562V2.37288Z" fill="white"/>
<path fill-rule="evenodd" clip-rule="evenodd" d="M-0.0976562 10.5609H3.16145V10.8979H-0.0976562V10.5609Z" fill="white"/>
<path fill-rule="evenodd" clip-rule="evenodd" d="M-0.0976562 13.2901H3.16145V13.6271H-0.0976562V13.2901Z" fill="white"/>
<path fill-rule="evenodd" clip-rule="evenodd" d="M58.8386 7.83163H62.0977V8.1687H58.8386V7.83163Z" fill="white"/>
<path fill-rule="evenodd" clip-rule="evenodd" d="M58.8386 5.10208H62.0977V5.43915H58.8386V5.10208Z" fill="white"/>
<path fill-rule="evenodd" clip-rule="evenodd" d="M58.8386 2.37288H62.0977V2.70994H58.8386V2.37288Z" fill="white"/>
<path fill-rule="evenodd" clip-rule="evenodd" d="M58.8386 10.5609H62.0977V10.8979H58.8386V10.5609Z" fill="white"/>
<path fill-rule="evenodd" clip-rule="evenodd" d="M58.8386 13.2901H62.0977V13.6271H58.8386V13.2901Z" fill="white"/>
</g>
<defs>
<clipPath id="clip0_4_33">
<rect width="62" height="16" fill="white"/>
</clipPath>
</defs>
</svg>
